<?xml version="1.0" encoding="utf-8"?>
<!-- Generator: Adobe Illustrator 27.5.0, SVG Export Plug-In . SVG Version: 6.00 Build 0)  -->
<svg version="1.1" xmlns="http://www.w3.org/2000/svg" xmlns:xlink="http://www.w3.org/1999/xlink" x="0px" y="0px"
	 viewBox="0 0 3710 3710" style="enable-background:new 0 0 3710 3710;" xml:space="preserve">
<g id="Background">
	<g>
		<g>
			<rect style="fill:#FFFFFF;" width="3710" height="3710"/>
		</g>
	</g>
</g>
<g id="Illustration">
	<g>
		<path style="fill:#F4F7FA;" d="M2897.51,680.682c105.299,149.067-194.004,514.343-63.397,633.531
			c89.531,81.704,250.619-63.719,372.08,14.951c165.105,106.938,140.395,604.474-96.076,915.929
			c-71.115,93.665-130.973,130.447-156.546,235.802c-53.618,220.896,148.382,339.149,110.695,470.305
			c-45.802,159.397-401.38,193.346-1418.039,205.983c-838.754,10.425-931.852-8.517-1011.455-93.847
			c-296.046-317.343-12.955-1132.19,404.202-1632.704C1665.121,679.362,2740.986,459.099,2897.51,680.682z"/>
		<g>
			<g>
				
					<linearGradient id="SVGID_1_" gradientUnits="userSpaceOnUse" x1="-1261.5873" y1="285.2891" x2="-340.7887" y2="2704.7661" gradientTransform="matrix(-0.9526 -0.3041 -0.3041 0.9526 1994.5925 207.51)">
					<stop  offset="0.0036" style="stop-color:#6165D7"/>
					<stop  offset="1" style="stop-color:#AA80F9"/>
				</linearGradient>
				<path style="fill:url(#SVGID_1_);" d="M2156.359,2467.813c18.359,95.483-40.721,171.737-91.317,220.364
					c-8.661-2.098-14.281-0.947-23.548-0.994c-83.636-0.423-118.197-19.382-199.815-33.513
					c-17.567-3.042-65.635-28.648-84.564-40.477l-34.917-22.668c0,0-15.996-225.123,104.814-256.17
					c120.811-31.047,131.566-248.463,150.743-363.727c52.035-312.743,376.558-202.452,475.547-598.992
					c26.328-105.468,41.271-315.405,151.103-377.314c125.129-70.533,175.755,41.764,260.81-22.086
					c132.939-99.797,309.345-103.593,375.832,49.659c65.618,151.252-115.404,374.852-459.609,505.159
					c-236.346,121.455-252.013,171.512-267.499,299.051c-10.847,89.334,15.691,335.672-124.369,396.58
					C2249.509,2283.591,2135.372,2358.659,2156.359,2467.813z"/>
				<g>
					<defs>
						<path id="SVGID_00000154391280393147770560000015608696134538222014_" d="M1996.426,2745.548l-269.679-145.854
							c0,0-20.546-234.292,100.265-265.34c120.811-31.047,131.566-248.463,150.744-363.727
							c52.034-312.742,376.557-202.452,475.546-598.992c26.328-105.468,41.271-315.405,151.103-377.315
							c125.129-70.532,175.755,41.764,260.81-22.086c132.938-99.796,309.345-103.592,375.831,49.659
							c65.618,151.252-115.405,374.852-459.609,505.159c-236.346,121.455-252.013,171.513-267.499,299.051
							c-10.847,89.334,15.691,335.672-124.369,396.58c-140.06,60.908-254.197,135.976-233.21,245.13
							C2188.294,2633.905,1996.426,2745.548,1996.426,2745.548z"/>
					</defs>
					<clipPath id="SVGID_00000110452864258815847610000018348337928851456700_">
						<use xlink:href="#SVGID_00000154391280393147770560000015608696134538222014_"  style="overflow:visible;"/>
					</clipPath>
					<g style="opacity:0.5;clip-path:url(#SVGID_00000110452864258815847610000018348337928851456700_);">
						<path style="fill:#FCFDFE;" d="M1882.623,2667.277l-5.67-2.185c13.019-33.795,26.566-67.717,40.265-100.823
							c101.444-245.115,222.096-471.89,358.613-674.029c115.676-171.277,244.332-327.303,382.393-463.743
							c111.029-109.725,228.717-207.437,349.796-290.42c85.118-58.335,171.018-108.847,255.317-150.125
							c14.69-7.196,30.115-13.734,45.033-20.056c19.875-8.423,40.428-17.132,59.397-27.471l2.907,5.338
							c-19.229,10.481-39.92,19.25-59.93,27.731c-14.844,6.29-30.193,12.795-44.734,19.918
							c-84.035,41.148-169.679,91.508-254.555,149.68c-120.78,82.778-238.186,180.259-348.96,289.73
							c-137.778,136.16-266.176,291.875-381.629,462.821c-136.287,201.796-256.746,428.211-358.031,672.948
							C1909.152,2599.651,1895.624,2633.525,1882.623,2667.277z"/>
						<path style="fill:#FCFDFE;" d="M2501.408,1603.74l-4.719-3.831c164.531-202.468,175.385-649.407,175.474-653.897l6.078,0.12
							C2678.15,950.644,2667.254,1399.651,2501.408,1603.74z"/>
						<path style="fill:#FCFDFE;" d="M2090.804,2210.469l-5.131-3.257c95.715-150.68,434.874-201.033,438.289-201.525l0.865,6.019
							C2521.44,2012.193,2185.022,2062.143,2090.804,2210.469z"/>
						<path style="fill:#FCFDFE;" d="M2043.886,2300.659l-5.625-2.302c44.1-107.859,46.614-278.513,7.075-480.519
							c-1.988-10.158-1.988-10.158-1.566-11.232l5.655,2.232l-2.827-1.116l3.028-0.024c0.054,0.691,0.805,4.526,1.677,8.972
							C2091.065,2019.829,2088.433,2191.711,2043.886,2300.659z"/>
						<path style="fill:#FCFDFE;" d="M1907.254,2605.938l-4.732-3.813c80.538-99.93,270.902-99.941,272.813-99.93l-0.034,6.078
							C2173.416,2508.263,1985.949,2508.297,1907.254,2605.938z"/>
						<path style="fill:#FCFDFE;" d="M1873.591,2665.518c2.124-103.473-25.392-210.941-84.12-328.542l5.441-2.717
							c59.177,118.505,86.901,226.902,84.755,331.384L1873.591,2665.518z"/>
						<path style="fill:#FCFDFE;" d="M2940.947,1191.133l-4.494-4.089c97.75-107.471,175.531-243.035,201.09-287.582
							c6.188-10.784,8.377-14.572,9.37-15.759l4.662,3.899c-0.746,0.916-4.282,7.081-8.76,14.886
							C3117.174,947.177,3039.145,1083.172,2940.947,1191.133z"/>
						<path style="fill:#FCFDFE;" d="M2756.167,1342.364l-3.092-5.233c117.28-69.317,380.927-0.614,392.094,2.344l-1.559,5.875
							C3140.901,1344.633,2871.256,1274.342,2756.167,1342.364z"/>
					</g>
				</g>
			</g>
			<g>
				<defs>
					<path id="SVGID_00000113352962881686879770000011266795094420846474_" d="M1854.538,2776.68l240.178,146.408
						c0,0,120.315-95.646,114.46-218.474c-11.946-250.608,208.378-243.58,301.099-254.442c139.831-16.38,255.91-91.798,145-223.046
						c-110.91-131.248,160.467-261.702,390.105-255.609c224.717,5.962,364.984-390.058-120.203-447.62
						c-289.752-34.376-400.68,227.43-488.128,346.323c-87.448,118.892-280.503,15.458-310.09,207.782
						c-25.273,164.281,20.21,323.027-113.843,364.846C1879.063,2484.666,1809.317,2580.658,1854.538,2776.68z"/>
				</defs>
				<clipPath id="SVGID_00000069397567127044445740000008199929472572278919_">
					<use xlink:href="#SVGID_00000113352962881686879770000011266795094420846474_"  style="overflow:visible;"/>
				</clipPath>
				
					<linearGradient id="SVGID_00000083771944534757833460000012804275988361847182_" gradientUnits="userSpaceOnUse" x1="6029.7227" y1="490.9681" x2="5469.7661" y2="2082.4243" gradientTransform="matrix(0.8539 0.5205 -0.5205 0.8539 -1761.5446 -1919.8285)">
					<stop  offset="0.0036" style="stop-color:#E38DDD"/>
					<stop  offset="1" style="stop-color:#9571F6"/>
				</linearGradient>
				
					<path style="clip-path:url(#SVGID_00000069397567127044445740000008199929472572278919_);fill:url(#SVGID_00000083771944534757833460000012804275988361847182_);" d="
					M1854.538,2776.68l240.178,146.408c0,0,120.315-95.646,114.46-218.474c-11.946-250.608,208.378-243.58,301.099-254.442
					c139.831-16.38,239.9-86.676,163.909-218.169c-85.979-148.777,141.557-266.579,371.195-260.486
					c224.717,5.962,364.984-390.058-120.203-447.62c-289.752-34.376-400.68,227.43-488.128,346.323
					c-87.448,118.892-280.503,15.458-310.09,207.782c-25.273,164.281,20.21,323.027-113.843,364.846
					C1879.063,2484.666,1809.317,2580.658,1854.538,2776.68z"/>
				<g style="opacity:0.5;clip-path:url(#SVGID_00000069397567127044445740000008199929472572278919_);">
					<path style="fill:#BEB8F2;" d="M1944.899,2862.338l5.545,2.126c1.316-3.434,134.389-346.78,368.941-647.375
						c216.083-276.93,565.021-573.183,1000.244-411.893l2.064-5.568c-193.74-71.8-386.774-60.471-573.742,33.668
						c-149.354,75.201-295.145,203.13-433.323,380.234C2079.561,2514.824,1946.22,2858.897,1944.899,2862.338z"/>
					<path style="fill:#BEB8F2;" d="M2671.521,1876.008l5.416,2.439c81.234-180.175,290.044-379.167,292.143-381.156l-4.082-4.313
						C2962.89,1494.977,2753.232,1694.777,2671.521,1876.008z"/>
					<path style="fill:#BEB8F2;" d="M2797.817,1816.698c235.509-2.297,363.875,145.939,365.142,147.436l4.531-3.837
						c-1.285-1.522-131.334-151.861-369.73-149.538L2797.817,1816.698z"/>
					<path style="fill:#BEB8F2;" d="M2176.75,2421.961c202.414-204.495,563.284-64.93,566.687-63.276l2.937-5.154
						c-3.185-1.939-369.633-142.059-573.844,64.253L2176.75,2421.961z"/>
					<path style="fill:#BEB8F2;" d="M2236.933,2319.711l5.596,1.993c61.641-172.95-40.475-380.056-41.515-382.129l-5.307,2.66
						C2196.734,1944.288,2297.717,2149.177,2236.933,2319.711z"/>
					<path style="fill:#BEB8F2;" d="M1972.573,2810.896c64.03-88.587,241.782-81.284,243.57-81.202l0.28-5.93
						c-7.429-0.352-182.745-7.549-248.662,83.654L1972.573,2810.896z"/>
					<path style="fill:#BEB8F2;" d="M2002.993,2729.165l5.519,2.193c31.922-80.313-28.635-228.374-48.535-277.028
						c-2.812-6.876-5.239-12.811-5.463-13.954l-5.843,1.061c0.293,1.617,1.896,5.567,5.81,15.141
						C1974.156,2504.683,2034.031,2651.076,2002.993,2729.165z"/>
				</g>
			</g>
			<g>
				
					<linearGradient id="SVGID_00000114071911063309841010000018424887232292046220_" gradientUnits="userSpaceOnUse" x1="2182.4414" y1="1908.597" x2="749.662" y2="3968.2166" gradientTransform="matrix(1 0 0 1 796.4531 0)">
					<stop  offset="0" style="stop-color:#FF9085"/>
					<stop  offset="1" style="stop-color:#FB6FBB"/>
				</linearGradient>
				<path style="fill:url(#SVGID_00000114071911063309841010000018424887232292046220_);" d="M2278.754,2999.022
					c-1.156,0.228-2.315,0.451-3.475,0.672c-68.637,13.044-145.952,15.176-232.318-0.542c-16.619-4.251-33.237-8.503-49.856-12.754
					c-5.272-42.841-2.617-84.529,51.753-88.751c84.434-6.556,116.543-145.612,105.484-199.658
					c-13.688-66.894-42.364-223.305,88.009-235.494c108.533-10.148,180.645,5.487,216.064-123.76
					c35.42-129.248,124.469-195.393,241.396-161.943c123.047,35.201,261.363-108.797,351.594-31.09
					c157.224,135.401-66.585,388.681-301.357,425.276c-234.771,36.596-127.368,141.585-144.687,249.881
					c-23.645,147.847-214.429,73.873-279.033,119.984C2300.445,2956.46,2286.951,2977.237,2278.754,2999.022z"/>
				<g>
					<defs>
						<path id="SVGID_00000057135276808674096980000016101311397165619379_" d="M2267.083,3080.792l-271.51-61.001
							c-7.181-41.988-11.446-117.428,49.285-122.144c84.434-6.556,116.543-145.612,105.484-199.658
							c-13.689-66.892-42.364-223.304,88.009-235.493c108.533-10.148,180.645,5.487,216.064-123.76
							c35.42-129.248,124.469-195.393,241.396-161.943c123.047,35.2,261.363-108.797,351.594-31.089
							c157.224,135.401-66.585,388.679-301.357,425.276c-234.771,36.596-127.368,141.585-144.687,249.881
							c-23.646,147.848-214.429,73.873-279.033,119.984C2271.682,2976.99,2265.831,3040.73,2267.083,3080.792z"/>
					</defs>
					<clipPath id="SVGID_00000108290935521675281800000000382768017815710617_">
						<use xlink:href="#SVGID_00000057135276808674096980000016101311397165619379_"  style="overflow:visible;"/>
					</clipPath>
					<g style="opacity:0.5;clip-path:url(#SVGID_00000108290935521675281800000000382768017815710617_);">
						<path style="fill:#FCFDFE;" d="M2148.836,3009.362l-5.518-2.432c177.905-403.369,550.705-718.42,972.917-822.206l1.439,5.856
							C2697.24,2293.928,2326.003,2607.668,2148.836,3009.362z"/>
						<path style="fill:#FCFDFE;" d="M2264.669,2797.752l-5.889-1.295c37.235-169.207-78.597-332.98-79.772-334.615l4.898-3.519
							C2185.096,2459.978,2302.491,2625.877,2264.669,2797.752z"/>
						<path style="fill:#FCFDFE;" d="M2183.587,2936.051l-4.568-3.937c114.677-133.052,431.075-85.829,434.258-85.335l-0.922,5.959
							C2609.207,2852.25,2296.083,2805.529,2183.587,2936.051z"/>
						<path style="fill:#FCFDFE;" d="M2554.488,2477.247l-4.89-3.531c81.632-112.93,42.421-322.973,42.016-325.082l5.92-1.142
							C2597.945,2149.626,2637.628,2362.231,2554.488,2477.247z"/>
						<path style="fill:#FCFDFE;" d="M2786.067,2319.883l-1.981-5.698c149.975-52.125,344.719,37.758,346.67,38.676l-2.56,5.461
							C3126.271,2357.414,2933.706,2268.568,2786.067,2319.883z"/>
					</g>
				</g>
			</g>
		</g>
		<g>
			<g>
				<path style="opacity:0.75;fill:#F4F7FA;" d="M902.798,1336.689c0-442.14,376.426-800.567,840.773-800.567
					c464.345,0,840.771,358.427,840.771,800.567c0,268.324-138.647,505.806-351.442,651.062
					c-90.278,61.623-145.027,163.193-145.027,272.497v61.264c0,133.113-107.909,241.021-241.022,241.021H1640.29
					c-133.113,0-241.022-107.909-241.022-241.021v-61.264c0-109.305-54.75-210.874-145.026-272.497
					C1041.445,1842.495,902.798,1605.013,902.798,1336.689z"/>
				
					<linearGradient id="SVGID_00000034772789557352619810000006838146431262625715_" gradientUnits="userSpaceOnUse" x1="-319.2628" y1="3059.5828" x2="-304.3306" y2="2940.1245" gradientTransform="matrix(-1 0 0 1 1441.8201 0)">
					<stop  offset="0.0036" style="stop-color:#26264F"/>
					<stop  offset="1" style="stop-color:#444B8C"/>
				</linearGradient>
				
					<ellipse style="fill:url(#SVGID_00000034772789557352619810000006838146431262625715_);" cx="1743.57" cy="2919.477" rx="186.506" ry="98.742"/>
				
					<linearGradient id="SVGID_00000175308884983064647240000010397646422208913596_" gradientUnits="userSpaceOnUse" x1="-380.6753" y1="2950.7065" x2="-231.3525" y2="2681.9255" gradientTransform="matrix(-1 0 0 1 1441.8201 0)">
					<stop  offset="0.0036" style="stop-color:#26264F"/>
					<stop  offset="1" style="stop-color:#444B8C"/>
				</linearGradient>
				<path style="fill:url(#SVGID_00000175308884983064647240000010397646422208913596_);" d="M1991.368,2743.085v100.836
					c0,34.116-19.415,65.375-50.208,80.06c-42.75,20.387-113.827,42.762-217.125,40.114c-83.801-2.147-138.447-15.833-173.188-30.21
					c-33.563-13.89-55.075-47.078-55.075-83.402v-55.792L1991.368,2743.085z"/>
				
					<linearGradient id="SVGID_00000055704513078228423320000000409680346990625178_" gradientUnits="userSpaceOnUse" x1="-549.5477" y1="2823.3315" x2="-53.9516" y2="2823.3315" gradientTransform="matrix(-1 0 0 1 1441.8201 0)">
					<stop  offset="0.0036" style="stop-color:#26264F"/>
					<stop  offset="1" style="stop-color:#444B8C"/>
				</linearGradient>
				<path style="opacity:0.3;fill:url(#SVGID_00000055704513078228423320000000409680346990625178_);" d="M1991.368,2831.409
					c-7.553,7.342-16.302,13.573-26.126,18.257c-47.96,22.873-362.106,73.977-437.883,45.504
					c-9.841-3.697-18.695-8.644-26.448-14.611c-3.316-9.522-5.138-19.657-5.138-30.076v-55.792l495.596-51.606V2831.409z"/>
				
					<linearGradient id="SVGID_00000165215344128118899860000002255025230090470822_" gradientUnits="userSpaceOnUse" x1="-366.4613" y1="2877.259" x2="-219.0047" y2="2593.5454" gradientTransform="matrix(-1 0 0 1 1441.8201 0)">
					<stop  offset="0.0036" style="stop-color:#26264F"/>
					<stop  offset="1" style="stop-color:#444B8C"/>
				</linearGradient>
				<path style="fill:url(#SVGID_00000165215344128118899860000002255025230090470822_);" d="M1969.366,2674.478
					c27.912-2.907,52.203,18.986,52.203,47.049v2.858c0,38.274-21.781,73.342-56.328,89.817
					c-47.96,22.872-362.106,73.977-437.883,45.504c-38.146-14.333-61.787-47.083-61.787-87.834v-2.301
					c0-24.229,18.306-44.54,42.404-47.05L1969.366,2674.478z"/>
				
					<linearGradient id="SVGID_00000147185166795053547790000016767341397571343795_" gradientUnits="userSpaceOnUse" x1="-571.7522" y1="2739.8044" x2="-31.9933" y2="2739.8044" gradientTransform="matrix(-1 0 0 1 1441.8201 0)">
					<stop  offset="0.0036" style="stop-color:#26264F"/>
					<stop  offset="1" style="stop-color:#444B8C"/>
				</linearGradient>
				<path style="opacity:0.3;fill:url(#SVGID_00000147185166795053547790000016767341397571343795_);" d="M1507.975,2722.523
					l461.391-48.045c18.204-1.896,34.817,6.792,44.207,20.823c-9.268,21.84-26.146,40.108-48.331,50.688
					c-47.96,22.872-375.484,80.639-437.883,51.238c-24.289-11.447-43.337-30.769-53.545-54.257
					C1481.417,2731.82,1493.655,2724.015,1507.975,2722.523z"/>
				
					<linearGradient id="SVGID_00000173145910224541193930000000294549224430004104_" gradientUnits="userSpaceOnUse" x1="-579.749" y1="2642.2793" x2="-23.7511" y2="2642.2793" gradientTransform="matrix(-1 0 0 1 1441.8201 0)">
					<stop  offset="0.0036" style="stop-color:#26264F"/>
					<stop  offset="1" style="stop-color:#444B8C"/>
				</linearGradient>
				<path style="fill:url(#SVGID_00000173145910224541193930000000294549224430004104_);" d="M1987.417,2511.108
					c18.861,0,34.152,15.29,34.152,34.151v78.975c0,38.273-21.781,73.342-56.328,89.817c-47.96,22.872-375.484,80.64-437.883,51.237
					c-36.863-17.372-61.787-52.816-61.787-93.567V2545.26c0-18.861,15.29-34.151,34.151-34.151H1987.417z"/>
				
					<linearGradient id="SVGID_00000028315968757057609900000002951480255031426191_" gradientUnits="userSpaceOnUse" x1="-315.5578" y1="2600.3406" x2="-260.8061" y2="2344.0039" gradientTransform="matrix(-1 0 0 1 1441.8201 0)">
					<stop  offset="0.0036" style="stop-color:#26264F"/>
					<stop  offset="1" style="stop-color:#444B8C"/>
				</linearGradient>
				<path style="fill:url(#SVGID_00000028315968757057609900000002951480255031426191_);" d="M1472.447,2535.694
					c0,35.402,121.386,64.101,271.123,64.101c149.737,0,271.122-28.699,271.122-64.101c0-35.401-121.385-64.1-271.122-64.1
					C1593.833,2471.594,1472.447,2500.292,1472.447,2535.694z"/>
				
					<linearGradient id="SVGID_00000164479799809659558570000005585851097745666475_" gradientUnits="userSpaceOnUse" x1="-420.703" y1="1170.0129" x2="665.5613" y2="2894.5974" gradientTransform="matrix(-1 0 0 1 1441.8201 0)">
					<stop  offset="0" style="stop-color:#FCB148"/>
					<stop  offset="0.0521" style="stop-color:#FDBA46"/>
					<stop  offset="0.1424" style="stop-color:#FFC244"/>
					<stop  offset="0.3183" style="stop-color:#FFC444"/>
					<stop  offset="0.4849" style="stop-color:#FDB946"/>
					<stop  offset="0.7754" style="stop-color:#F99C4D"/>
					<stop  offset="0.8658" style="stop-color:#F8924F"/>
					<stop  offset="1" style="stop-color:#F8924F"/>
				</linearGradient>
				<path style="fill:url(#SVGID_00000164479799809659558570000005585851097745666475_);" d="M902.798,1336.689
					c0-442.14,376.426-800.567,840.773-800.567c464.345,0,840.771,358.427,840.771,800.567
					c0,268.324-138.647,505.806-351.442,651.062c-90.278,61.623-145.027,163.193-145.027,272.497v61.264
					c0,133.113-107.909,241.021-241.022,241.021H1640.29c-133.113,0-241.022-107.909-241.022-241.021v-61.264
					c0-109.305-54.75-210.874-145.026-272.497C1041.445,1842.495,902.798,1605.013,902.798,1336.689z"/>
				<ellipse style="opacity:0.5;fill:#F4F7FA;" cx="1743.57" cy="2485.149" rx="198.387" ry="46.904"/>
				<g>
					
						<linearGradient id="SVGID_00000041263895722078034190000008300931486503410326_" gradientUnits="userSpaceOnUse" x1="-619.15" y1="2497.9226" x2="-397.6545" y2="1850.858" gradientTransform="matrix(-1 0 0 1 1441.8201 0)">
						<stop  offset="0.494" style="stop-color:#EBEFF2"/>
						<stop  offset="1" style="stop-color:#FFFFFF"/>
					</linearGradient>
					<path style="fill:url(#SVGID_00000041263895722078034190000008300931486503410326_);" d="M1795.269,2513.813
						c5.681,0,10.613-4.22,11.357-10.004l145.946-1134.988c0.807-6.28-3.63-12.024-9.911-12.83
						c-6.292-0.845-12.024,3.627-12.833,9.907l-145.946,1134.988c-0.806,6.281,3.631,12.025,9.911,12.831
						C1794.289,2513.784,1794.781,2513.813,1795.269,2513.813z"/>
					
						<linearGradient id="SVGID_00000014604221908335752830000006188000742411943349_" gradientUnits="userSpaceOnUse" x1="-407.394" y1="2570.408" x2="-185.8983" y2="1923.343" gradientTransform="matrix(-1 0 0 1 1441.8201 0)">
						<stop  offset="0.494" style="stop-color:#EBEFF2"/>
						<stop  offset="1" style="stop-color:#FFFFFF"/>
					</linearGradient>
					<path style="fill:url(#SVGID_00000014604221908335752830000006188000742411943349_);" d="M1704.619,2513.813
						c0.487,0,0.98-0.028,1.475-0.095c6.28-0.806,10.717-6.55,9.911-12.831l-145.949-1134.988
						c-0.809-6.28-6.547-10.758-12.833-9.907c-6.281,0.806-10.717,6.55-9.911,12.83l145.95,1134.988
						C1694.005,2509.592,1698.936,2513.813,1704.619,2513.813z"/>
					
						<linearGradient id="SVGID_00000070106331719071501570000008409503651598846383_" gradientUnits="userSpaceOnUse" x1="-696.2813" y1="2471.5225" x2="-474.7852" y2="1824.4568" gradientTransform="matrix(-1 0 0 1 1441.8201 0)">
						<stop  offset="0.494" style="stop-color:#EBEFF2"/>
						<stop  offset="1" style="stop-color:#FFFFFF"/>
					</linearGradient>
					<path style="fill:url(#SVGID_00000070106331719071501570000008409503651598846383_);" d="M1585.757,1367.903
						c3.726,0,7.382-1.814,9.584-5.156l40.28-61.107c0.415-0.627,1.053-0.991,1.635-0.918c0.999,0.023,1.422,0.733,1.558,0.963
						l26.593,44.543c4.408,7.378,12.133,11.912,20.668,12.125c8.48,0.274,16.497-3.935,21.279-11.101l36.516-54.748
						c0.398-0.593,0.929-0.901,1.578-0.907c0.776,0.146,1.139,0.275,1.528,0.834l32.079,46.367
						c4.632,6.701,12.228,10.709,20.321,10.725h0.05c8.089,0,15.699-3.985,20.365-10.675l46.247-66.251
						c0.417-0.599,1.005-0.806,1.632-0.868c0.661,0.028,1.178,0.364,1.542,0.991l42.211,72.868
						c3.172,5.475,10.191,7.345,15.666,4.171c5.48-3.175,7.347-10.189,4.173-15.669l-42.211-72.868
						c-4.293-7.406-11.926-12.041-20.419-12.4c-8.425-0.431-16.495,3.628-21.398,10.653l-46.244,66.252
						c-0.401,0.571-0.927,0.868-1.562,0.868h-0.003c-0.621-0.005-1.131-0.286-1.517-0.84l-32.079-46.368
						c-4.694-6.779-12.422-10.815-20.579-10.72c-8.215,0.073-15.864,4.226-20.46,11.117l-36.512,54.742
						c-0.411,0.616-1.027,1.131-1.635,0.901c-0.994-0.022-1.413-0.728-1.551-0.957l-26.593-44.542
						c-4.425-7.406-12.178-11.94-20.74-12.131c-8.476-0.19-16.531,4.008-21.286,11.224l-40.28,61.107
						c-3.485,5.284-2.023,12.393,3.264,15.881C1581.402,1367.293,1583.592,1367.903,1585.757,1367.903z"/>
				</g>
				
					<linearGradient id="SVGID_00000171690461422575774580000012077530612848989864_" gradientUnits="userSpaceOnUse" x1="-382.5835" y1="781.2767" x2="-599.1017" y2="2565.6821" gradientTransform="matrix(-1 0 0 1 1441.8201 0)">
					<stop  offset="0" style="stop-color:#FCB148"/>
					<stop  offset="0.0521" style="stop-color:#FDBA46"/>
					<stop  offset="0.1424" style="stop-color:#FFC244"/>
					<stop  offset="0.3183" style="stop-color:#FFC444"/>
					<stop  offset="0.4849" style="stop-color:#FDB946"/>
					<stop  offset="0.7754" style="stop-color:#F99C4D"/>
					<stop  offset="0.8658" style="stop-color:#F8924F"/>
					<stop  offset="1" style="stop-color:#F8924F"/>
				</linearGradient>
				<path style="opacity:0.3;fill:url(#SVGID_00000171690461422575774580000012077530612848989864_);" d="M1728.311,1968.15
					c-18.011-308.564-538.195-380.778-535.966-656.344c1.372-169.719,208.081-295.762,252.22-321.006
					c325.245-186.022,725.572,28.793,808.249-123.244c20.585-37.853,10.934-79.059,5.437-102.526
					c-8.308-35.466-27.116-68.499-55.018-98.714c229.47,142.948,381.109,389.78,381.109,670.373
					c0,268.324-138.647,505.807-351.442,651.062c-90.278,61.625-145.027,163.194-145.027,272.498v61.264
					c0,133.113-107.91,241.021-241.022,241.021H1640.29c-133.112,0-241.022-107.908-241.022-241.021v-48.982
					c28.43,21.788,61.083,36.983,96.887,36.69C1620.39,2308.199,1737.275,2121.701,1728.311,1968.15z"/>
				<ellipse style="opacity:0.44;fill:#F4F7FA;" cx="1730.122" cy="1367.903" rx="723.5" ry="697.737"/>
			</g>
			<g>
				<defs>
					<path id="SVGID_00000062890711510940399160000002769047036005481886_" d="M902.798,1336.689
						c0-442.14,376.426-800.566,840.773-800.566c131.491,0,255.919,28.764,366.757,80.009c5.325,68.203-2.95,124.173-15.697,169.223
						c-68.847,243.334-286.938,241.561-463.592,562.054c-136.846,248.273-68.209,362.253-209.231,521.028
						c-47.16,53.095-102.116,93.526-160.396,124.369c-2.368-1.709-4.75-3.404-7.169-5.055
						C1041.444,1842.495,902.798,1605.014,902.798,1336.689z"/>
				</defs>
				<clipPath id="SVGID_00000116937892544985563090000005082940408711006624_">
					<use xlink:href="#SVGID_00000062890711510940399160000002769047036005481886_"  style="overflow:visible;"/>
				</clipPath>
				
					<linearGradient id="SVGID_00000129927543540881362280000016593992008889872543_" gradientUnits="userSpaceOnUse" x1="-565.424" y1="1903.1917" x2="56.0853" y2="567.8668" gradientTransform="matrix(-1 0 0 1 1441.8201 0)">
					<stop  offset="0.0054" style="stop-color:#D8DEE8"/>
					<stop  offset="1" style="stop-color:#F4F7FA"/>
				</linearGradient>
				
					<path style="clip-path:url(#SVGID_00000116937892544985563090000005082940408711006624_);fill:url(#SVGID_00000129927543540881362280000016593992008889872543_);" d="
					M902.798,1336.689c0-442.14,376.426-800.567,840.773-800.567c464.345,0,840.771,358.427,840.771,800.567
					c0,268.324-138.647,505.806-351.442,651.062c-90.278,61.623-145.027,163.193-145.027,272.497v61.264
					c0,133.113-107.909,241.021-241.022,241.021H1640.29c-133.113,0-241.022-107.909-241.022-241.021v-61.264
					c0-109.305-54.75-210.874-145.026-272.497C1041.445,1842.495,902.798,1605.013,902.798,1336.689z"/>
				
					<linearGradient id="SVGID_00000163047805964713100310000004785037921708598430_" gradientUnits="userSpaceOnUse" x1="-747.1699" y1="1304.4388" x2="309.3208" y2="1304.4388" gradientTransform="matrix(-1 0 0 1 1441.8201 0)">
					<stop  offset="0" style="stop-color:#FCB148"/>
					<stop  offset="0.0521" style="stop-color:#FDBA46"/>
					<stop  offset="0.1424" style="stop-color:#FFC244"/>
					<stop  offset="0.3183" style="stop-color:#FFC444"/>
					<stop  offset="0.4849" style="stop-color:#FDB946"/>
					<stop  offset="0.7754" style="stop-color:#F99C4D"/>
					<stop  offset="0.8658" style="stop-color:#F8924F"/>
					<stop  offset="1" style="stop-color:#F8924F"/>
				</linearGradient>
				
					<path style="opacity:0.3;clip-path:url(#SVGID_00000116937892544985563090000005082940408711006624_);fill:url(#SVGID_00000163047805964713100310000004785037921708598430_);" d="
					M2110.328,616.132c-80.086-1.063-190.209,11.265-268.689,85.804c-98.095,93.169-53.112,194.591-120.344,330.942
					c-113.113,229.4-341.115,146.49-497.781,382.908c-142.483,215.016-89.562,488.327-30.084,530.601
					c5.337,3.793,67.981,46.42,67.981,46.42l0,0l927.579-399.242L2110.328,616.132z"/>
				<g style="clip-path:url(#SVGID_00000116937892544985563090000005082940408711006624_);">
					<path style="fill:#FFFFFF;" d="M1743.569,2107.641c-216.031,0-419.141-80.141-571.913-225.661
						c-152.819-145.565-236.98-339.115-236.98-544.998s84.161-399.432,236.98-544.997
						c152.773-145.52,355.882-225.663,571.913-225.663s419.142,80.142,571.915,225.663
						c152.818,145.565,236.98,339.114,236.98,544.997s-84.162,399.434-236.98,544.998
						C2162.712,2027.5,1959.602,2107.641,1743.569,2107.641z M1743.569,573.274c-214.239,0-415.644,79.46-567.119,223.745
						c-151.428,144.239-234.823,336.001-234.823,539.963s83.394,395.725,234.823,539.964
						c151.474,144.283,352.88,223.743,567.119,223.743s415.646-79.46,567.12-223.743
						c151.427-144.239,234.823-336.002,234.823-539.964s-83.396-395.724-234.823-539.963
						C2159.214,652.734,1957.808,573.274,1743.569,573.274z"/>
					<path style="fill:#FFFFFF;" d="M1743.569,2107.641c-326.973,0-592.986-345.716-592.986-770.659
						s266.013-770.659,592.986-770.659c326.975,0,592.988,345.716,592.988,770.659S2070.544,2107.641,1743.569,2107.641z
						 M1743.569,573.274c-323.141,0-586.034,342.598-586.034,763.707s262.894,763.707,586.034,763.707
						s586.036-342.598,586.036-763.707S2066.71,573.274,1743.569,573.274z"/>
					<path style="fill:#FFFFFF;" d="M1743.569,2107.641c-80.271,0-155.444-80.592-211.669-226.932
						c-55.821-145.289-86.563-338.389-86.563-543.727c0-205.337,30.742-398.436,86.563-543.727
						c56.225-146.34,131.397-226.932,211.669-226.932c80.273,0,155.444,80.592,211.669,226.932
						c55.821,145.29,86.563,338.389,86.563,543.727s-30.742,398.438-86.563,543.727
						C1899.014,2027.049,1823.843,2107.641,1743.569,2107.641z M1743.569,573.274c-160.612,0-291.28,342.598-291.28,763.707
						s130.668,763.707,291.28,763.707s291.28-342.598,291.28-763.707S1904.182,573.274,1743.569,573.274z"/>
					<g>
						<rect x="1740.094" y="569.798" style="fill:#FFFFFF;" width="6.952" height="1534.367"/>
					</g>
					<path style="fill:#FFFFFF;" d="M1743.569,1426.689c-215.23,0-417.593-7.089-569.809-19.965
						c-74.098-6.266-132.302-13.57-172.997-21.708c-58.576-11.713-66.087-22.144-66.087-29.924c0-7.778,7.512-18.21,66.087-29.924
						c40.695-8.137,98.899-15.44,172.997-21.708c152.218-12.874,354.581-19.965,569.809-19.965s417.591,7.091,569.81,19.965
						c74.099,6.268,132.302,13.571,172.997,21.708c58.575,11.714,66.088,22.146,66.088,29.924c0,7.78-7.512,18.211-66.088,29.924
						c-40.695,8.138-98.898,15.442-172.997,21.708C2161.162,1419.6,1958.801,1426.689,1743.569,1426.689z M1743.569,1290.448
						c-215.04,0-417.194,7.081-569.223,19.939c-221.498,18.734-232.718,40.527-232.718,44.706c0,4.179,11.221,25.971,232.718,44.706
						c152.028,12.858,354.182,19.939,569.223,19.939s417.195-7.081,569.223-19.939c221.5-18.734,232.72-40.527,232.72-44.706
						c0-4.179-11.22-25.971-232.72-44.706C2160.763,1297.529,1958.609,1290.448,1743.569,1290.448z"/>
					<path style="fill:#FFFFFF;" d="M1743.569,1136.277c-198.607,0-385.347-9.321-525.819-26.246
						c-100.677-12.129-220.69-33.556-220.69-66.753c0-33.195,120.012-54.622,220.69-66.753
						c140.474-16.923,327.214-26.245,525.819-26.245s385.345,9.321,525.819,26.245c100.677,12.13,220.69,33.558,220.69,66.753
						c0,33.197-120.012,54.624-220.69,66.753C2128.916,1126.955,1942.176,1136.277,1743.569,1136.277z M1743.569,957.232
						c-198.337,0-384.781,9.303-524.988,26.195c-199.096,23.987-214.569,51.875-214.569,59.85c0,7.975,15.474,35.865,214.569,59.852
						c140.206,16.893,326.651,26.195,524.988,26.195s384.782-9.303,524.988-26.195c199.096-23.987,214.569-51.876,214.569-59.852
						c0-7.975-15.474-35.863-214.569-59.85C2128.351,966.535,1941.906,957.232,1743.569,957.232z"/>
					<path style="fill:#FFFFFF;" d="M1745.813,775.606c-218.076,0-443.646-27.278-443.646-72.929
						c0-45.649,225.569-72.927,443.646-72.927c218.076,0,443.644,27.278,443.644,72.927
						C2189.457,748.328,1963.889,775.606,1745.813,775.606z M1745.813,636.702c-261.219,0-436.694,34.113-436.694,65.975
						c0,31.862,175.475,65.977,436.694,65.977s436.692-34.115,436.692-65.977C2182.505,670.815,2007.032,636.702,1745.813,636.702z"
						/>
					<path style="fill:#FFFFFF;" d="M1743.569,1717.946c-198.605,0-385.345-9.321-525.819-26.245
						c-100.677-12.13-220.69-33.558-220.69-66.753c0-33.196,120.012-54.624,220.69-66.753
						c140.473-16.925,327.213-26.246,525.819-26.246s385.347,9.321,525.819,26.246c100.677,12.129,220.69,33.556,220.69,66.753
						c0,33.195-120.012,54.623-220.69,66.753C2128.915,1708.624,1942.175,1717.946,1743.569,1717.946z M1743.569,1538.901
						c-198.337,0-384.781,9.303-524.988,26.195c-199.096,23.987-214.569,51.876-214.569,59.852s15.474,35.863,214.569,59.85
						c140.206,16.893,326.651,26.195,524.988,26.195s384.782-9.303,524.988-26.195c199.096-23.987,214.569-51.875,214.569-59.85
						s-15.474-35.865-214.569-59.852C2128.351,1548.204,1941.906,1538.901,1743.569,1538.901z"/>
					<path style="fill:#FFFFFF;" d="M1745.813,2038.476c-218.076,0-443.646-27.28-443.646-72.929s225.569-72.927,443.646-72.927
						c218.076,0,443.644,27.278,443.644,72.927S1963.889,2038.476,1745.813,2038.476z M1745.813,1899.572
						c-261.219,0-436.694,34.113-436.694,65.975c0,31.862,175.475,65.977,436.694,65.977s436.692-34.115,436.692-65.977
						C2182.505,1933.685,2007.032,1899.572,1745.813,1899.572z"/>
				</g>
				<path style="clip-path:url(#SVGID_00000116937892544985563090000005082940408711006624_);fill:#FFFFFF;" d="M1151.036,1099.203
					c0,16.993,13.776,30.769,30.77,30.769c16.993,0,30.769-13.776,30.769-30.769c0-16.994-13.776-30.769-30.769-30.769
					C1164.812,1068.434,1151.036,1082.209,1151.036,1099.203z"/>
				
					<ellipse transform="matrix(0.9848 -0.1735 0.1735 0.9848 -173.5805 270.3798)" style="clip-path:url(#SVGID_00000116937892544985563090000005082940408711006624_);fill:#FFFFFF;" cx="1459.756" cy="1128.054" rx="30.769" ry="30.77"/>
				
					<ellipse transform="matrix(0.9637 -0.2669 0.2669 0.9637 -331.2063 360.8145)" style="clip-path:url(#SVGID_00000116937892544985563090000005082940408711006624_);fill:#FFFFFF;" cx="1161.569" cy="1398.672" rx="30.77" ry="30.769"/>
				
					<circle style="clip-path:url(#SVGID_00000116937892544985563090000005082940408711006624_);fill:#FFFFFF;" cx="1450.525" cy="1416.127" r="30.77"/>
				
					<ellipse transform="matrix(0.4472 -0.8944 0.8944 0.4472 -372.2123 1468.9734)" style="clip-path:url(#SVGID_00000116937892544985563090000005082940408711006624_);fill:#FFFFFF;" cx="1002.318" cy="1035.613" rx="30.769" ry="30.77"/>
				
					<ellipse transform="matrix(0.9894 -0.1452 0.1452 0.9894 -186.9205 150.985)" style="clip-path:url(#SVGID_00000116937892544985563090000005082940408711006624_);fill:#FFFFFF;" cx="940.779" cy="1355.887" rx="30.769" ry="30.77"/>
				<path style="clip-path:url(#SVGID_00000116937892544985563090000005082940408711006624_);fill:#FFFFFF;" d="M1712.8,1132.023
					c0,16.994,13.776,30.77,30.77,30.77c16.993,0,30.769-13.776,30.769-30.77c0-16.993-13.776-30.769-30.769-30.769
					C1726.577,1101.254,1712.8,1115.03,1712.8,1132.023z"/>
				<path style="clip-path:url(#SVGID_00000116937892544985563090000005082940408711006624_);fill:#FFFFFF;" d="M1712.8,770.996
					c0,16.993,13.776,30.769,30.77,30.769c16.993,0,30.769-13.776,30.769-30.769c0-16.993-13.776-30.769-30.769-30.769
					C1726.577,740.227,1712.8,754.003,1712.8,770.996z"/>
				<path style="clip-path:url(#SVGID_00000116937892544985563090000005082940408711006624_);fill:#FFFFFF;" d="M1516.448,762.791
					c0,16.993,13.776,30.769,30.769,30.769c16.994,0,30.77-13.776,30.77-30.769c0-16.994-13.776-30.77-30.77-30.77
					C1530.223,732.021,1516.448,745.797,1516.448,762.791z"/>
				<path style="clip-path:url(#SVGID_00000116937892544985563090000005082940408711006624_);fill:#FFFFFF;" d="M1349.328,739.543
					c0,16.994,13.776,30.77,30.77,30.77c16.993,0,30.769-13.776,30.769-30.77s-13.776-30.769-30.769-30.769
					C1363.104,708.773,1349.328,722.549,1349.328,739.543z"/>
				
					<ellipse transform="matrix(0.7071 -0.7071 0.7071 0.7071 -110.322 1127.8303)" style="clip-path:url(#SVGID_00000116937892544985563090000005082940408711006624_);fill:#FFFFFF;" cx="1306.251" cy="697.086" rx="30.769" ry="30.769"/>
				<path style="clip-path:url(#SVGID_00000116937892544985563090000005082940408711006624_);fill:#FFFFFF;" d="M1712.8,569.969
					c0,16.994,13.776,30.77,30.77,30.77c16.993,0,30.769-13.776,30.769-30.77c0-16.993-13.776-30.769-30.769-30.769
					C1726.577,539.2,1712.8,552.976,1712.8,569.969z"/>
				
					<ellipse transform="matrix(0.8944 -0.4472 0.4472 0.8944 -608.1348 844.8679)" style="clip-path:url(#SVGID_00000116937892544985563090000005082940408711006624_);fill:#FFFFFF;" cx="1485.397" cy="1710.488" rx="30.769" ry="30.769"/>
				
					<ellipse transform="matrix(0.9732 -0.2298 0.2298 0.9732 -354.1418 324.72)" style="clip-path:url(#SVGID_00000116937892544985563090000005082940408711006624_);fill:#FFFFFF;" cx="1217.361" cy="1683.137" rx="30.77" ry="30.769"/>
				
					<circle style="clip-path:url(#SVGID_00000116937892544985563090000005082940408711006624_);fill:#FFFFFF;" cx="1006.622" cy="1631.171" r="30.769"/>
			</g>
		</g>
		<g>
			
				<linearGradient id="SVGID_00000072986052063114991340000016398477423615311525_" gradientUnits="userSpaceOnUse" x1="1013.3126" y1="3136.3828" x2="1100.1221" y2="3136.3828" gradientTransform="matrix(-1 0 0 1 2211.8015 0)">
				<stop  offset="0" style="stop-color:#AA80F9"/>
				<stop  offset="0.9964" style="stop-color:#6165D7"/>
			</linearGradient>
			<path style="fill:url(#SVGID_00000072986052063114991340000016398477423615311525_);" d="M1113.094,3118.065
				c0,0-2.523,20.072-0.83,26.795c1.694,6.725,60.051,11.584,79.86,9.247c19.808-2.339-11.799-22.572-24.421-26.369
				C1155.083,3123.94,1113.094,3118.065,1113.094,3118.065z"/>
			
				<linearGradient id="SVGID_00000155129777504127386160000017545597561454549391_" gradientUnits="userSpaceOnUse" x1="1069.3319" y1="3105.3958" x2="1099.5374" y2="3105.3958" gradientTransform="matrix(-1 0 0 1 2211.8015 0)">
				<stop  offset="0.0036" style="stop-color:#F36F56"/>
				<stop  offset="1" style="stop-color:#FFC444"/>
			</linearGradient>
			<path style="fill:url(#SVGID_00000155129777504127386160000017545597561454549391_);" d="M1142.469,3084.582l-6.151,40.269
				c0,0-15.685,7.05-23.224,0.082l-0.83-42.15L1142.469,3084.582z"/>
			
				<linearGradient id="SVGID_00000034778271173005956560000010367101310553161099_" gradientUnits="userSpaceOnUse" x1="1388.6693" y1="3126.9978" x2="1456.0652" y2="3126.9978" gradientTransform="matrix(-1 0 0 1 2211.8015 0)">
				<stop  offset="0" style="stop-color:#AA80F9"/>
				<stop  offset="0.9964" style="stop-color:#6165D7"/>
			</linearGradient>
			<path style="fill:url(#SVGID_00000034778271173005956560000010367101310553161099_);" d="M813.491,3082.783
				c0,0,12.382,9.188,9.081,20.193c-3.3,11.003-32.193,55.097-52.786,67.611c-20.59,12.516-14.136-13.558-8.143-29.797
				c5.992-16.239,21.302-52.011,27.281-58.007C794.9,3076.788,813.491,3082.783,813.491,3082.783z"/>
			
				<linearGradient id="SVGID_00000049942980531858310110000011941524427027415735_" gradientUnits="userSpaceOnUse" x1="1376.0375" y1="3086.7703" x2="1436.1099" y2="3086.7703" gradientTransform="matrix(-1 0 0 1 2211.8015 0)">
				<stop  offset="0.0036" style="stop-color:#F36F56"/>
				<stop  offset="1" style="stop-color:#FFC444"/>
			</linearGradient>
			<path style="fill:url(#SVGID_00000049942980531858310110000011941524427027415735_);" d="M835.764,3038.542
				c-5.985,16.685-11.742,30.402-16.246,40.52c-9.963,22.384-15.408,30.782-21.575,38.065c-5.378,6.342-18.11,19.875-21.533,17.623
				c-3.475-2.285,5.84-18.74,23.793-66.929c2.607-6.994,10.841-29.279,10.841-29.279l0,0H835.764z"/>
			
				<linearGradient id="SVGID_00000042733736206531954570000012434630888678789510_" gradientUnits="userSpaceOnUse" x1="1608.1095" y1="2375.3159" x2="1279.3513" y2="2569.4736" gradientTransform="matrix(-1 0 0 1 2211.8015 0)">
				<stop  offset="0" style="stop-color:#311944"/>
				<stop  offset="1" style="stop-color:#893976"/>
			</linearGradient>
			<path style="fill:url(#SVGID_00000042733736206531954570000012434630888678789510_);" d="M1264.681,2341.377
				c4.271,41.937,8.369,107.027,2.242,186.025c-7.984,102.924-28.566,168.052-54.375,277.793
				c-15.774,67.066-37.026,165.774-56.26,289.224c-4.463,2.554-17.592,9.271-34.495,6.763c-9.465-1.405-16.543-5.168-20.723-7.872
				c-50.463-154.199-35.559-249.757-11.206-309.291c10.38-25.378,22.966-45.399,29.693-84.408
				c8.901-51.61-2.104-80.461-17.801-200.01c-11.188-85.208-9.252-98.38-1.807-111.158
				C1129.704,2337.351,1220.713,2338.35,1264.681,2341.377z"/>
			
				<linearGradient id="SVGID_00000037694727677033909530000001089066389192371630_" gradientUnits="userSpaceOnUse" x1="1667.022" y1="2475.0652" x2="1338.2628" y2="2669.2234" gradientTransform="matrix(-1 0 0 1 2211.8015 0)">
				<stop  offset="0" style="stop-color:#311944"/>
				<stop  offset="1" style="stop-color:#893976"/>
			</linearGradient>
			<path style="fill:url(#SVGID_00000037694727677033909530000001089066389192371630_);" d="M1090.984,2359.309
				c-30.913,159.648-61.255,243.498-84.215,290.925c-5.662,11.695-24.554,49.43-42.414,103.529
				c-15.812,47.887-22.401,83.113-25.775,98.617c-10.657,48.937-37,120.389-107.876,214.107c-0.883,0.519-12.968,7.355-24.522,1.261
				c-5.848-3.086-8.763-8.004-9.92-10.296c9.265-89.601,19.902-164.894,29.135-223.005c1.938-12.187,10.468-65.51,23.847-135.959
				c5.237-27.572,12.909-67.966,22.099-109.456c11.442-51.67,28.988-121.961,56.031-206.19
				C981.911,2374.995,1036.448,2367.156,1090.984,2359.309z"/>
			
				<linearGradient id="SVGID_00000062881822213568260810000007362982274596540076_" gradientUnits="userSpaceOnUse" x1="1415.0098" y1="2087.0393" x2="1273.812" y2="1887.0093" gradientTransform="matrix(-1 0 0 1 2211.8015 0)">
				<stop  offset="0" style="stop-color:#444B8C"/>
				<stop  offset="0.9964" style="stop-color:#26264F"/>
			</linearGradient>
			<path style="fill:url(#SVGID_00000062881822213568260810000007362982274596540076_);" d="M1117.321,1727.837
				c17.531-16.206,51.072-34.887,67.894-78.315c5.064-13.073,23.005-59.391-3.46-94.821c-15.707-21.032-44.883-35.313-70.599-30.257
				c-21.975,4.321-25.412,19.625-62.753,50.428c-14.536,11.989-37.898,31.261-63.901,41.976
				c-44.549,18.359-71.313,1.084-116.038,3.053c-54.945,2.423-118.773,33.086-149.524,77.678
				c-54.582,79.141,24.485,159.425-35.299,252.14c-19.591,30.375-29.244,23.565-75.642,82.365
				c-46.46,58.878-69.69,88.313-65.557,124.389c5.737,50.066,59.664,97.893,110.446,101.143
				c49.606,3.179,81.14-35.851,106.394-18.778c17.975,12.147,7.698,35.778,26.789,64.177c24.609,36.613,72.979,43.908,80.791,45.083
				c72.509,10.939,170.275-74.085,211.797-174.816C1153.534,1991.638,1022.006,1815.941,1117.321,1727.837z"/>
			
				<linearGradient id="SVGID_00000139972020928763100950000007671305851077575357_" gradientUnits="userSpaceOnUse" x1="1142.5961" y1="1682.9501" x2="1259.1401" y2="2395.6638" gradientTransform="matrix(-1 0 0 1 2211.8015 0)">
				<stop  offset="0" style="stop-color:#FF9085"/>
				<stop  offset="1" style="stop-color:#FB6FBB"/>
			</linearGradient>
			<path style="fill:url(#SVGID_00000139972020928763100950000007671305851077575357_);" d="M1414.844,1778.265
				c0.493-50.704-114.685-91.223-167.385-104.276c-81.979-20.31-147.625-7.557-163.57-4.184
				c-102.237,21.662-165.91,83.01-189.875,108.796c19.623,12.778,73.778,51.767,100.598,125.734
				c8.345,23.014,32.997,101.69-2.259,175.382c-20.314,42.463-56.251,74.342-83.542,98.558
				c-40.937,36.315-62.137,41.898-75.861,74.432c-14.946,35.431,0.114,52.706-18.446,76.963
				c-19.932,26.048-43.287,13.94-77.074,40.283c-34.609,26.979-22.293,49.187-53.789,79.004
				c-45.766,43.322-106.436,29.252-109.261,48.747c-2.432,16.769,40.688,39.521,77.323,48.747
				c72.549,18.274,135.828-12.397,154.645-21.852c52.099-26.172,43.1-43.113,82.819-63.068
				c66.511-33.409,111.964,3.769,263.453,7.598c82.035,2.074,123.515,2.54,146.24-25.215c20.754-25.352,9.844-53.16-2.61-173.005
				c-5.927-57.04-8.065-114.415-12.435-171.592c-12.357-161.745-12.734-175.979-1.764-198.343
				C1321.35,1820.865,1414.402,1823.769,1414.844,1778.265z"/>
			<g style="opacity:0.3;">
				
					<linearGradient id="SVGID_00000102511402136491952320000015571896455735392702_" gradientUnits="userSpaceOnUse" x1="1262.6316" y1="1663.3208" x2="1379.1758" y2="2376.0359" gradientTransform="matrix(-1 0 0 1 2211.8015 0)">
					<stop  offset="0" style="stop-color:#FF9085"/>
					<stop  offset="1" style="stop-color:#FB6FBB"/>
				</linearGradient>
				<path style="fill:url(#SVGID_00000102511402136491952320000015571896455735392702_);" d="M683.64,2448.956
					c31.496-29.817,19.18-52.024,53.789-79.004c33.787-26.344,57.141-14.236,77.074-40.283c18.561-24.257,3.5-41.531,18.446-76.963
					c13.724-32.534,34.924-38.117,75.861-74.432c27.292-24.216,63.229-56.095,83.542-98.558
					c35.256-73.692,10.604-152.368,2.259-175.382c-26.82-73.967-80.974-112.957-100.598-125.734c1.889-2.036,4.118-4.355,6.5-6.797
					c129.294,17.768,204.679,92.477,214.003,114.599c21.551,51.137-12.567,69.923-13.448,217.405
					c-0.419,70.493,7.184,98.328-15.687,127.751c-26.16,33.651-56.305,23.237-94.132,67.237
					c-29.066,33.802-24.411,55.234-51.55,69.476c-29.182,15.312-47.77-2.535-80.685,4.485
					c-54.988,11.726-66.744,75.13-103.096,109.819c-27.49,26.23-78.315,44.57-178.551,24.886c-2.318-3.376-3.438-6.672-2.99-9.758
					C577.205,2478.208,637.874,2492.278,683.64,2448.956z"/>
			</g>
			
				<linearGradient id="SVGID_00000085970256550070953920000009698400565264061110_" gradientUnits="userSpaceOnUse" x1="1238.5234" y1="1667.2642" x2="1355.0671" y2="2379.9763" gradientTransform="matrix(-1 0 0 1 2211.8015 0)">
				<stop  offset="0" style="stop-color:#FF9085"/>
				<stop  offset="1" style="stop-color:#FB6FBB"/>
			</linearGradient>
			<path style="fill:url(#SVGID_00000085970256550070953920000009698400565264061110_);" d="M1075.297,1926.187
				c13.744,29.186-49.413,97.166-119.61,129.444c-14.301,6.58-117.01,53.803-162.786,8.392
				c-37.824-37.526-13.412-115.118-4.697-142.82c42.794-136.025,174.22-205.219,229.298-230.176
				c41.105,102.779,16.897,148.578,7.368,162.879c-9.954,14.938-37.733,46.318-67.237,73.961
				c-20.754,19.442-33.677,28.903-31.938,31.938c2.162,3.775,26.489-3.355,120.974-49.345
				C1057.621,1912.233,1070.601,1916.219,1075.297,1926.187z"/>
			
				<linearGradient id="SVGID_00000117665581071633507150000013128477111209414065_" gradientUnits="userSpaceOnUse" x1="1010.0859" y1="1791.3319" x2="642.3303" y2="2576.178" gradientTransform="matrix(-1 0 0 1 2211.8015 0)">
				<stop  offset="0" style="stop-color:#444B8C"/>
				<stop  offset="0.9964" style="stop-color:#26264F"/>
			</linearGradient>
			<path style="fill:url(#SVGID_00000117665581071633507150000013128477111209414065_);" d="M1470.646,1758.503l-46.36,230.879
				c-1.486,7.399-7.22,13.209-14.599,14.792l-345.682,74.187c-12.388,2.658-23.844-7.357-22.862-19.988l18.244-234.811
				c0.634-8.149,6.406-14.965,14.343-16.922c54.835-13.533,265.896-64.219,377.214-70.804
				C1463.378,1735.1,1473.098,1746.291,1470.646,1758.503z"/>
			<path style="fill:#FFFFFF;" d="M1125.855,1589.882c0,0-6.521,52.128-25.76,64.072c-19.24,11.937-50.343,27.539-53.77,31.773
				c-3.426,4.229,119.187,17.413,179.951-13.25l0,0c-20.024-4.177-25.469-5.712-25.469-5.712
				c-5.434-1.537-15.572-4.394-25.736-10.185c-6.917-3.939-18.066-11.634-28.293-26.166l0.222-28.863L1125.855,1589.882z"/>
			<path style="fill:#FFFFFF;" d="M1122.929,1608.344c0,0,12.543,17.219,32.217,10.043c17.615-6.424,7.101-51.92-6.87-57.109
				c-4.659-1.73-13.219-0.965-18.939,2.604c-4.024,2.511-14.768,15.858-8.609,30.815c-4.45-1.29-8.367-0.119-9.348,2.085
				c-1.245,2.795,2.522,6.602,3.377,7.464C1117.715,1607.235,1121.284,1608.072,1122.929,1608.344z"/>
			
				<linearGradient id="SVGID_00000155133503666308444820000015458915391534483335_" gradientUnits="userSpaceOnUse" x1="740.7744" y1="1905.6332" x2="1134.3293" y2="1905.6332" gradientTransform="matrix(-1 0 0 1 2211.8015 0)">
				<stop  offset="0" style="stop-color:#444B8C"/>
				<stop  offset="0.9964" style="stop-color:#26264F"/>
			</linearGradient>
			<path style="opacity:0.3;fill:url(#SVGID_00000155133503666308444820000015458915391534483335_);" d="M1159.344,1958.125
				c37.125-10.468,67.915,15.527,97.494-5.043c30.299-21.07,10.524-57.06,42.023-92.451c33.68-37.841,76.406-19.305,107.58-53.79
				c11.572-12.805,21.983-33.666,22.143-69.235c7.81-0.754,15.29-1.353,22.361-1.773c12.432-0.735,22.154,10.46,19.702,22.666
				l-46.362,230.88c-1.485,7.4-7.218,13.21-14.598,14.793l-332.215,71.294C1100.929,1993.174,1132.231,1965.766,1159.344,1958.125z"
				/>
			<path style="fill:#FFFFFF;" d="M1446.345,1881.328c0,0,22.052-20.382,24.45-44.058c2.399-23.677-14.242-42.623-30.364-47.452
				c-16.121-4.829-24.725,2.293-13.904,25.607C1437.352,1838.738,1454.519,1853.871,1446.345,1881.328z"/>
		</g>
		<g>
			<g>
				
					<linearGradient id="SVGID_00000164492268700560269740000016630827571348269450_" gradientUnits="userSpaceOnUse" x1="-528.4248" y1="1987.0453" x2="575.3316" y2="1987.0453" gradientTransform="matrix(-1 0 0 1 2531.1758 0)">
					<stop  offset="0" style="stop-color:#444B8C"/>
					<stop  offset="0.9964" style="stop-color:#26264F"/>
				</linearGradient>
				<path style="opacity:0.3;fill:url(#SVGID_00000164492268700560269740000016630827571348269450_);" d="M1988.761,1868.743
					L1988.761,1868.743c7.101-0.014,13.756,3.755,19.123,10.1c0.002-0.005,0.054-0.009,0.056-0.014
					c59.514-167.208,255.528-291.598,490.754-293.808c47.852-0.449,94.314,4.17,138.505,13.285c0.045,0.009,0.093,0.02,0.138,0.028
					c0.002-0.009,0.007-0.019,0.009-0.03c175.758,36.085,315.708,142.462,365.643,278.996c5.666-6.55,13.378-10.418,20.87-10.432
					c19.147-0.035,35.742,24.922,35.742,55.721v162.022c0,30.842-15.849,55.701-34.999,55.597c-0.111,0-0.472-0.031-0.583-0.034
					c-0.14,0.002-0.403,0.033-0.54,0.031c-11.428-0.062-22.179-9.042-28.447-22.803
					c-70.383,160.764-267.132,274.433-496.281,271.645c-64.144-0.781-125.405-10.64-181.698-27.983
					c-142.389-43.702-253.615-135.159-301.713-248.381c-0.004-0.01-0.012-0.02-0.017-0.03c-5.97,13.356-15.74,22.027-26.559,21.968
					l0,0c-18.076-0.098-32.919-24.426-32.919-54.338v-157.323C1955.844,1893.05,1970.684,1868.776,1988.761,1868.743z"/>
				
					<linearGradient id="SVGID_00000032624461933109631050000013382011065962372004_" gradientUnits="userSpaceOnUse" x1="-341.7375" y1="2797.158" x2="399.2854" y2="2797.158" gradientTransform="matrix(-1 0 0 1 2531.1758 0)">
					<stop  offset="0" style="stop-color:#444B8C"/>
					<stop  offset="0.9964" style="stop-color:#26264F"/>
				</linearGradient>
				<path style="opacity:0.3;fill:url(#SVGID_00000032624461933109631050000013382011065962372004_);" d="M2346.623,2448.661
					l305.442,4.221c39.013,0.539,76.828,11.553,109.848,31.257c26.11,15.499,49.258,36.447,67.719,61.915
					c41.833,57.743,54.206,131.669,33.329,199.011c-0.43,1.372-0.86,2.786-1.287,4.158l-7.983,25.714
					c-16.17,51.996-32.284,103.903-48.385,155.809c-41.088,132.343-162.707,219.216-299.935,214.766
					c-43.332-1.406-85.06-11.331-123.34-28.328c-88.831-39.46-159.24-117.013-188.67-214.969
					c-14.328-47.704-28.682-95.329-42.984-142.958l-7.688-25.57c-0.411-1.364-0.825-2.769-1.238-4.132
					c-20.063-66.809-8.177-138.855,32.122-194.148C2213.958,2479.952,2278.133,2447.715,2346.623,2448.661z"/>
			</g>
			<g>
				<g>
					<path style="fill:#FFFFFF;" d="M1980.301,1960.854c0,43.147,8.932,84.68,25.448,123.548
						c47.022,110.687,155.75,200.096,294.952,242.82c55.032,16.954,114.908,26.594,177.614,27.357
						c224.019,2.725,416.332-108.399,485.139-265.563c17.422-39.774,26.859-82.403,26.859-126.762
						c0-37.411-6.73-73.632-19.292-107.966c-48.815-133.476-185.492-237.472-357.314-272.749
						c-43.202-8.911-88.612-13.427-135.393-12.988c-229.959,2.16-421.561,123.765-479.743,287.23
						C1986.671,1889.226,1980.301,1924.465,1980.301,1960.854z"/>
					<path style="fill:#D8DEE8;" d="M2244.653,2171.952l454.158,3.271c93.015,0.67,168.766-75.017,168.766-169.055v-99.428
						c0-42.484-34.261-76.848-76.436-76.755l-636.097,1.401c-40.637,0.09-73.512,33.867-73.512,75.445v97.307
						C2081.531,2096.17,2154.381,2171.302,2244.653,2171.952z"/>
					<path style="fill:#D8DEE8;" d="M2445.984,2256.309l64.716,0.614c89.732,0.85,162.8-72.373,162.8-163.554v0
						c0-91.18-73.067-165.13-162.8-165.173l-64.716-0.03c-88.977-0.042-160.79,73.058-160.79,163.272v0
						C2285.195,2181.652,2357.007,2255.466,2445.984,2256.309z"/>
					
						<linearGradient id="SVGID_00000147924586392763719590000012962586844763278215_" gradientUnits="userSpaceOnUse" x1="-305.0847" y1="1977.1814" x2="414.7006" y2="1977.1814" gradientTransform="matrix(-1 0 0 1 2531.1758 0)">
						<stop  offset="0" style="stop-color:#444B8C"/>
						<stop  offset="0.9964" style="stop-color:#26264F"/>
					</linearGradient>
					<path style="fill:url(#SVGID_00000147924586392763719590000012962586844763278215_);" d="M2232.538,2095.326l483.765,2.462
						c66.154,0.337,119.958-53.549,119.958-120.359v-44.11c0-42.448-34.202-76.808-76.306-76.745l-569.824,0.844
						c-40.715,0.06-73.655,33.847-73.655,75.465v43.248C2116.475,2041.634,2168.346,2094.999,2232.538,2095.326z"/>
					<path style="fill:#D8DEE8;" d="M2573.743,1990.853c-4.622-6.691-7.485-14.21-7.485-22.321c0-26.255,27.496-47.532,61.47-47.523
						c34.038,0.009,61.678,21.373,61.678,47.717c0,8.138-2.881,15.671-7.532,22.363L2573.743,1990.853z"/>
					<path style="fill:#D8DEE8;" d="M2267.12,1990.183c-4.545-6.635-7.367-14.09-7.367-22.134c0-26.035,27.037-47.133,60.45-47.124
						c33.468,0.009,60.645,21.193,60.645,47.315c0,8.07-2.833,15.539-7.406,22.176L2267.12,1990.183z"/>
					
						<linearGradient id="SVGID_00000138534370572932008000000016658633787140640669_" gradientUnits="userSpaceOnUse" x1="-492.6916" y1="1977.6996" x2="-429.1659" y2="1977.6996" gradientTransform="matrix(-1 0 0 1 2531.1758 0)">
						<stop  offset="0" style="stop-color:#444B8C"/>
						<stop  offset="0.9964" style="stop-color:#26264F"/>
					</linearGradient>
					<path style="fill:url(#SVGID_00000138534370572932008000000016658633787140640669_);" d="M2960.342,1898.589v158.106
						c0,12.063,0.711,23.246,4.853,32.325c6.128,13.452,14.816,22.23,25.988,22.29c18.719,0.102,32.685-24.2,32.685-54.352v-158.395
						c0-30.11-14.837-54.508-33.556-54.474c-7.323,0.013-13.92,3.795-19.461,10.199c-1.521,1.738-1.134,3.689-2.446,5.809
						C2962.278,1869.968,2960.342,1883.561,2960.342,1898.589z"/>
					
						<linearGradient id="SVGID_00000165932651669656527870000002003967669641553294_" gradientUnits="userSpaceOnUse" x1="519.1648" y1="1975.8853" x2="583.1945" y2="1975.8853" gradientTransform="matrix(-1 0 0 1 2531.1758 0)">
						<stop  offset="0" style="stop-color:#444B8C"/>
						<stop  offset="0.9964" style="stop-color:#26264F"/>
					</linearGradient>
					<path style="fill:url(#SVGID_00000165932651669656527870000002003967669641553294_);" d="M1979.967,2105.849L1979.967,2105.849
						c17.69,0.096,32.044-23.574,32.044-52.869v-154.076c0-29.294-14.353-53.016-32.044-52.984l0,0
						c-17.672,0.032-31.986,23.763-31.986,53.006v153.802C1947.981,2081.97,1962.295,2105.754,1979.967,2105.849z"/>
				</g>
				<path style="fill:#FFFFFF;" d="M2129.046,2687.46c0.404,1.333,0.809,2.707,1.211,4.04l7.514,24.997
					c13.983,46.563,28.016,93.122,42.021,139.758c28.772,95.764,97.606,171.58,184.447,210.157
					c37.425,16.616,78.217,26.32,120.58,27.694c134.155,4.352,253.052-80.578,293.218-209.958
					c15.74-50.744,31.494-101.489,47.301-152.32l7.806-25.138c0.418-1.342,0.838-2.724,1.259-4.065
					c20.411-65.835,8.312-138.106-32.583-194.556c-18.049-24.898-40.677-45.376-66.204-60.528
					c-32.282-19.263-69.25-30.031-107.389-30.558l-298.603-4.126c-66.958-0.925-129.695,30.59-169.176,84.803
					C2121.053,2551.714,2109.432,2622.147,2129.046,2687.46z"/>
				<polygon style="fill:#D8DEE8;" points="2130.257,2691.5 2137.771,2716.497 2825.338,2731.828 2833.144,2706.689 				"/>
				<path style="opacity:0.3;fill:#D8DEE8;" d="M2442.167,2256.218c-44.52,29.01-92.813,52.702-141.467,71.004
					c55.032,16.954,114.908,26.594,177.614,27.357c224.019,2.725,416.332-108.399,485.139-265.563
					c6.128,13.452,15.686,22.232,26.858,22.292c18.719,0.101,33.556-24.198,33.556-54.35v-158.395
					c0-30.11-14.837-54.508-33.556-54.474c-7.323,0.013-13.92,3.795-19.461,10.199c-48.816-133.477-185.408-237.472-357.231-272.75
					c-16.249,57.992-15.75,130.173,14.065,219.746c3.279,9.808,6.125,19.494,8.614,29.054c2.328,8.891,4.289,17.701,5.95,26.427
					c4.363,23.079,6.486,45.451,6.527,67.11c0.042,23.213-2.198,45.583-6.56,67.106c-0.292,1.343-0.54,2.643-0.87,3.944
					c-7.848,36.612-21.75,70.707-40.366,102.28c-16.237,27.615-36.101,53.256-58.626,76.881
					C2512.883,2204.947,2478.849,2232.374,2442.167,2256.218z"/>
				<path style="opacity:0.3;fill:#D8DEE8;" d="M2364.239,3066.412c37.425,16.616,78.217,26.32,120.58,27.694
					c134.155,4.352,253.052-80.578,293.218-209.958c15.74-50.744,31.494-101.489,47.301-152.32l7.806-25.138
					c0.418-1.342,0.838-2.724,1.259-4.065c20.411-65.835,8.312-138.106-32.583-194.556c-18.049-24.898-40.677-45.376-66.204-60.528
					c-1.461,74.072,12.363,157.723-89.951,255.098c-8.514,8.125-17.811,16.312-27.977,24.56
					c-25.036,20.398-55.331,41.314-91.974,62.794C2350.377,2892.688,2306.897,2994.311,2364.239,3066.412z"/>
			</g>
		</g>
	</g>
</g>
</svg>
