<svg width="1440" height="3454" viewBox="0 0 1440 3454" fill="none" xmlns="http://www.w3.org/2000/svg">
<ellipse cx="1273.5" cy="525.5" rx="153.5" ry="140.5" fill="#F8F0E5" fill-opacity="0.7"/>
<ellipse cx="154.5" cy="1023" rx="76.5" ry="74" fill="#F8F0E5" fill-opacity="0.7"/>
<ellipse cx="592" cy="1562.5" rx="48" ry="42.5" fill="#F8F0E5" fill-opacity="0.7"/>
<ellipse cx="1189" cy="2022.5" rx="48" ry="42.5" fill="#F8F0E5" fill-opacity="0.7"/>
<ellipse cx="735" cy="990.5" rx="38" ry="32.5" fill="#F8F0E5" fill-opacity="0.7"/>
<ellipse cx="72" cy="1519.5" rx="38" ry="32.5" fill="#F8F0E5" fill-opacity="0.7"/>
<ellipse cx="154.5" cy="2360.5" rx="138.5" ry="129.5" fill="#F8F0E5" fill-opacity="0.7"/>
<path d="M839 2023C839 2084.3 782.14 2134 712 2134C641.86 2134 585 2084.3 585 2023C585 1961.7 641.86 1912 712 1912C782.14 1912 839 1961.7 839 2023Z" fill="#F8F0E5" fill-opacity="0.7"/>
<ellipse cx="1344.5" cy="1503.5" rx="71.5" ry="59.5" fill="#F8F0E5" fill-opacity="0.7"/>
<ellipse cx="629.5" cy="2606.5" rx="58.5" ry="60.5" fill="#F8F0E5" fill-opacity="0.7"/>
</svg>
