<svg width="34" height="35" viewBox="0 0 34 35" fill="none" xmlns="http://www.w3.org/2000/svg">
<path d="M24.9521 22.6273C26.6324 20.2722 27.625 17.3648 27.625 14.2188C27.625 6.36595 21.4409 0 13.8125 0C6.18407 0 0 6.36595 0 14.2188C0 22.0716 6.18407 28.4375 13.8125 28.4375C16.8695 28.4375 19.6945 27.4152 21.9826 25.6846L21.9808 25.686C22.0434 25.7735 22.1132 25.8572 22.1902 25.9364L30.3724 34.3593C31.2023 35.2136 32.5477 35.2136 33.3776 34.3593C34.2075 33.505 34.2075 32.12 33.3776 31.2657L25.1954 22.8428C25.1184 22.7636 25.0371 22.6918 24.9521 22.6273ZM25.5 14.2188C25.5 20.8634 20.2673 26.25 13.8125 26.25C7.35767 26.25 2.125 20.8634 2.125 14.2188C2.125 7.57407 7.35767 2.1875 13.8125 2.1875C20.2673 2.1875 25.5 7.57407 25.5 14.2188Z" fill="black"/>
</svg>
