<svg width="1434" height="880" viewBox="0 0 1434 880" fill="none" xmlns="http://www.w3.org/2000/svg">
<g clip-path="url(#clip0_113_9)">
<path d="M470.166 10.5203C185.723 -32.9904 17.5375 68.9374 -31 125.34V660L1472 639.326V139.971C1256.57 114.95 754.609 54.031 470.166 10.5203Z" fill="#F8E1C1"/>
<path d="M1042.73 775.86C1120.42 836.639 1337.88 741.747 1436.9 686.704L1441.02 251.584L-1.54793 258.315L-6.71393 803.897C19.5222 791.785 90.1592 757.397 162.819 716.746C253.644 665.932 281.726 704.865 394.41 770.316C507.094 835.768 581.804 799.957 715.439 708.573C849.074 617.189 945.623 699.887 1042.73 775.86Z" fill="#F8E1C1"/>
<ellipse cx="1297.5" cy="595.5" rx="111.5" ry="101.5" fill="white" fill-opacity="0.5"/>
<ellipse cx="94.5" cy="159" rx="55.5" ry="51" fill="white" fill-opacity="0.5"/>
<ellipse cx="715.5" cy="527.5" rx="46.5" ry="47.5" fill="white" fill-opacity="0.5"/>
<ellipse cx="346.5" cy="622.5" rx="46.5" ry="47.5" fill="white" fill-opacity="0.5"/>
<ellipse cx="1131.5" cy="192.5" rx="46.5" ry="47.5" fill="white" fill-opacity="0.5"/>
<ellipse cx="47" cy="446.5" rx="22" ry="20.5" fill="white" fill-opacity="0.5"/>
<ellipse cx="1387" cy="216.5" rx="22" ry="20.5" fill="white" fill-opacity="0.5"/>
<ellipse cx="535" cy="46.5" rx="22" ry="20.5" fill="white" fill-opacity="0.5"/>
</g>
<defs>
<clipPath id="clip0_113_9">
<rect width="1434" height="880" fill="white"/>
</clipPath>
</defs>
</svg>
